<svg width="12" height="14" viewBox="0 0 12 14" fill="none" xmlns="http://www.w3.org/2000/svg">
<path fill-rule="evenodd" clip-rule="evenodd" d="M0.448547 3.10294C0.448547 2.18924 1.18925 1.44853 2.10296 1.44853H9.89708C10.8108 1.44853 11.5515 2.18924 11.5515 3.10294V11.8971C11.5515 12.8108 10.8108 13.5515 9.89708 13.5515H2.10296C1.18925 13.5515 0.448547 12.8108 0.448547 11.8971V3.10294ZM2.10296 2.55147C1.79839 2.55147 1.55149 2.79837 1.55149 3.10294V11.8971C1.55149 12.2016 1.79839 12.4485 2.10296 12.4485H9.89708C10.2016 12.4485 10.4485 12.2016 10.4485 11.8971V3.10294C10.4485 2.79837 10.2016 2.55147 9.89708 2.55147H2.10296Z" fill="#020105"/>
<path fill-rule="evenodd" clip-rule="evenodd" d="M8.00002 0.44853C8.30459 0.44853 8.55149 0.695432 8.55149 1V3C8.55149 3.30457 8.30459 3.55147 8.00002 3.55147C7.69545 3.55147 7.44855 3.30457 7.44855 3V1C7.44855 0.695432 7.69545 0.44853 8.00002 0.44853Z" fill="#020105"/>
<path fill-rule="evenodd" clip-rule="evenodd" d="M4.00002 0.44853C4.30459 0.44853 4.55149 0.695432 4.55149 1V3C4.55149 3.30457 4.30459 3.55147 4.00002 3.55147C3.69545 3.55147 3.44855 3.30457 3.44855 3V1C3.44855 0.695432 3.69545 0.44853 4.00002 0.44853Z" fill="#020105"/>
<path fill-rule="evenodd" clip-rule="evenodd" d="M0.448547 5C0.448547 4.69543 0.695449 4.44853 1.00002 4.44853H11C11.3046 4.44853 11.5515 4.69543 11.5515 5C11.5515 5.30457 11.3046 5.55147 11 5.55147H1.00002C0.695449 5.55147 0.448547 5.30457 0.448547 5Z" fill="#020105"/>
</svg>
