<svg width="16" height="16" viewBox="0 0 16 16" fill="none" xmlns="http://www.w3.org/2000/svg">
<path d="M8.66669 6.00004H11.6667L11.3334 7.33337H8.66669V13.3334H7.33335V7.33337H4.66669V6.00004H7.33335V4.75204C7.33335 3.56337 7.45735 3.13204 7.68935 2.69737C7.91669 2.26791 8.26789 1.91671 8.69735 1.68937C9.13202 1.45737 9.56335 1.33337 10.752 1.33337C11.1 1.33337 11.4054 1.36671 11.6667 1.43337V2.66671H10.752C9.86935 2.66671 9.60069 2.71871 9.32669 2.86537C9.12402 2.97337 8.97335 3.12404 8.86535 3.32671C8.71869 3.60071 8.66669 3.86937 8.66669 4.75204V6.00004Z" fill="white"/>
</svg>
