<svg width="20" height="20" viewBox="0 0 20 20" fill="none" xmlns="http://www.w3.org/2000/svg">
<path d="M10.8833 6.75832L12.0625 7.93749C12.6042 8.47917 13.034 9.12226 13.3272 9.83003C13.6204 10.5378 13.7713 11.2964 13.7713 12.0625C13.7713 12.8286 13.6204 13.5872 13.3272 14.2949C13.034 15.0027 12.6042 15.6458 12.0625 16.1875L11.7675 16.4817C10.6735 17.5757 9.18968 18.1903 7.6425 18.1903C6.09532 18.1903 4.61152 17.5757 3.5175 16.4817C2.42348 15.3876 1.80887 13.9038 1.80887 12.3567C1.80887 10.8095 2.42348 9.32568 3.5175 8.23166L4.69667 9.41082C4.30697 9.79712 3.99742 10.2566 3.78577 10.7628C3.57413 11.2691 3.46456 11.8121 3.46336 12.3609C3.46215 12.9096 3.56934 13.4531 3.77877 13.9603C3.9882 14.4674 4.29574 14.9283 4.68373 15.3163C5.07173 15.7043 5.53254 16.0118 6.03971 16.2212C6.54689 16.4306 7.09043 16.5378 7.63914 16.5366C8.18785 16.5354 8.73091 16.4259 9.23716 16.2142C9.74341 16.0026 10.2029 15.693 10.5892 15.3033L10.8842 15.0083C11.6653 14.227 12.1041 13.1673 12.1041 12.0625C12.1041 10.9576 11.6653 9.89802 10.8842 9.11666L9.705 7.93749L10.8842 6.75916L10.8833 6.75832ZM16.4817 11.7675L15.3033 10.5892C15.693 10.2029 16.0026 9.7434 16.2142 9.23715C16.4259 8.7309 16.5354 8.18784 16.5366 7.63913C16.5378 7.09042 16.4307 6.54688 16.2212 6.0397C16.0118 5.53253 15.7043 5.07172 15.3163 4.68373C14.9283 4.29573 14.4675 3.98819 13.9603 3.77876C13.4531 3.56933 12.9096 3.46215 12.3609 3.46335C11.8122 3.46455 11.2691 3.57412 10.7628 3.78576C10.2566 3.99741 9.79713 4.30696 9.41083 4.69666L9.11583 4.99166C8.3347 5.77302 7.89589 6.83264 7.89589 7.93749C7.89589 9.04234 8.3347 10.102 9.11583 10.8833L10.295 12.0625L9.11583 13.2408L7.9375 12.0625C7.39576 11.5208 6.96603 10.8777 6.67284 10.1699C6.37965 9.46218 6.22875 8.70358 6.22875 7.93749C6.22875 7.1714 6.37965 6.4128 6.67284 5.70503C6.96603 4.99726 7.39576 4.35417 7.9375 3.81249L8.2325 3.51832C9.32652 2.42431 10.8103 1.80969 12.3575 1.80969C13.9047 1.80969 15.3885 2.42431 16.4825 3.51832C17.5765 4.61234 18.1911 6.09615 18.1911 7.64332C18.1911 9.1905 17.5765 10.6743 16.4825 11.7683L16.4817 11.7675Z" fill="white"/>
</svg>
