<svg width="15" height="12" viewBox="0 0 15 12" fill="none" xmlns="http://www.w3.org/2000/svg">
<path fill-rule="evenodd" clip-rule="evenodd" d="M1.64488 5.77779C1.70884 5.89412 1.79604 6.04637 1.90577 6.22394C2.16992 6.65142 2.56088 7.2195 3.06825 7.78513C4.09535 8.93016 5.52409 9.98416 7.28573 9.98416C9.04738 9.98416 10.4761 8.93016 11.5032 7.78513C12.0106 7.2195 12.4015 6.65142 12.6657 6.22394C12.7754 6.04637 12.8626 5.89412 12.9266 5.77779C12.8626 5.66146 12.7754 5.50922 12.6657 5.33165C12.4015 4.90417 12.0106 4.33609 11.5032 3.77046C10.4761 2.62542 9.04738 1.57143 7.28573 1.57143C5.52409 1.57143 4.09535 2.62542 3.06825 3.77046C2.56088 4.33609 2.16992 4.90417 1.90577 5.33165C1.79604 5.50922 1.70884 5.66146 1.64488 5.77779ZM13.5714 5.77779C14.0869 5.53119 14.0868 5.531 14.0867 5.53079L14.0858 5.52894L14.0839 5.52495L14.0775 5.51186C14.0721 5.50091 14.0645 5.48553 14.0546 5.46602C14.0349 5.42701 14.0061 5.37144 13.9686 5.30168C13.8936 5.16225 13.783 4.96565 13.6379 4.73088C13.3485 4.26252 12.918 3.63616 12.354 3.00733C11.2382 1.76347 9.52409 0.42857 7.28573 0.42857C5.04738 0.42857 3.33326 1.76347 2.2175 3.00733C1.65345 3.63616 1.22297 4.26252 0.933553 4.73088C0.788482 4.96565 0.677907 5.16225 0.602864 5.30168C0.565321 5.37144 0.536607 5.42701 0.516856 5.46602C0.506978 5.48553 0.499336 5.50091 0.493946 5.51186L0.48755 5.52495L0.485622 5.52894L0.484975 5.53028C0.484875 5.53049 0.484541 5.53119 1.00002 5.77779L0.484541 5.53119C0.409938 5.68713 0.409938 5.86846 0.484541 6.0244L1.00002 5.77779C0.484541 6.0244 0.484441 6.02419 0.484541 6.0244L0.485622 6.02665L0.48755 6.03064L0.493946 6.04373C0.499336 6.05468 0.506978 6.07006 0.516856 6.08957C0.536607 6.12858 0.565321 6.18415 0.602864 6.2539C0.677907 6.39334 0.788482 6.58994 0.933553 6.82471C1.22297 7.29307 1.65345 7.91943 2.2175 8.54825C3.33326 9.79212 5.04738 11.127 7.28573 11.127C9.52409 11.127 11.2382 9.79212 12.354 8.54825C12.918 7.91943 13.3485 7.29307 13.6379 6.82471C13.783 6.58994 13.8936 6.39334 13.9686 6.2539C14.0061 6.18415 14.0349 6.12858 14.0546 6.08957C14.0645 6.07006 14.0721 6.05468 14.0775 6.04373L14.0839 6.03064L14.0858 6.02665L14.0865 6.02531C14.0866 6.0251 14.0869 6.0244 13.5714 5.77779ZM13.5714 5.77779L14.0869 6.0244C14.1615 5.86846 14.1613 5.68673 14.0867 5.53079L13.5714 5.77779Z" fill="#020105"/>
<path fill-rule="evenodd" clip-rule="evenodd" d="M4.9989 5.778C4.9989 4.49694 5.99873 3.4149 7.28462 3.4149C8.5705 3.4149 9.57033 4.49694 9.57033 5.778C9.57033 7.05907 8.5705 8.1411 7.28462 8.1411C5.99873 8.1411 4.9989 7.05907 4.9989 5.778ZM7.28462 4.55775C6.67695 4.55775 6.14176 5.08004 6.14176 5.778C6.14176 6.47596 6.67695 6.99825 7.28462 6.99825C7.89228 6.99825 8.42747 6.47596 8.42747 5.778C8.42747 5.08004 7.89228 4.55775 7.28462 4.55775Z" fill="#020105"/>
</svg>
